<svg width="1177" height="467" viewBox="0 0 1177 467" fill="none" xmlns="http://www.w3.org/2000/svg">
    <path d="M0 26C0 12.7452 10.7452 2 24 2H1153C1166.25 2 1177 12.7452 1177 26V408C1177 421.255 1166.25 432 1153 432H24C10.7451 432 0 421.255 0 408V26Z" fill="#FEBD2F"/>
    <path d="M800.789 360.661L697.37 352.214V393.044L700.179 432.114H716.469H855.778V352.214L800.789 360.661Z" fill="white"/>
    <path d="M952.077 316.202L906.435 338.623L891.167 346.043V432.114H935.342C935.342 432.114 953.946 369.686 954.613 328.893C954.678 324.929 954.613 318.74 954.613 318.74L952.077 316.202Z" fill="white" stroke="black" stroke-linecap="round"/>
    <path d="M748.914 248.748C748.914 248.748 754.606 243.787 759.04 242.181C765.731 239.757 773.723 242.181 777.267 242.181C778.949 242.181 785.663 242.673 790.431 240.665C796.486 238.114 800.454 230.992 802.582 229.045C802.582 229.045 808.26 220.908 812.708 216.415C817.852 211.22 821.242 208.754 827.391 204.795C847.137 192.081 885.617 189.638 885.617 189.638L915.995 192.67C915.995 192.67 921.908 195.657 925.615 197.722C929.02 199.618 934.222 202.774 934.222 202.774C934.222 202.774 942.164 209.684 946.374 214.899C951.054 220.697 953.168 224.404 956.5 231.066C960.716 239.497 962.558 244.601 964.601 253.8C967.045 264.807 967.419 271.352 966.626 282.598C966.006 291.399 965.777 296.602 962.575 304.827C959.456 312.839 956.561 317.015 950.93 323.52C947.365 327.639 945.112 329.78 940.804 333.119C936.385 336.544 933.907 338.775 928.653 340.697C923.218 342.685 919.714 343.429 913.97 342.718C910.924 342.34 906.375 341.707 906.375 341.707L901.819 339.686C901.819 339.686 905.098 337.303 906.375 335.14C908.207 332.037 907.894 326.046 907.894 326.046C907.894 326.046 908.814 320.323 906.375 316.447C903.506 311.886 899.524 308.872 894.224 307.858C890.923 307.227 888.856 306.964 885.617 307.858C881.385 309.026 874.984 309.879 874.984 309.879L856.757 316.447L846.125 319.983L841.062 321.499L830.429 323.52L824.86 316.447L815.24 311.9L812.625 304.399C811.484 304.664 809.729 304.827 807.139 304.827H782.33C782.33 304.827 775.267 305.018 770.685 304.827C768.512 304.736 765.116 304.827 765.116 304.827C765.116 304.827 766.128 297.754 765.116 292.702C764.371 288.985 759.04 285.629 759.04 285.629C759.04 285.629 761.597 281.483 762.584 278.556C763.161 276.844 763.547 273.504 763.547 273.504C763.846 268.758 763.388 268.193 762.584 264.915C761.7 261.312 761.051 259.219 759.04 256.099C757.707 254.032 754.989 251.274 754.989 251.274C750.703 249.242 743.851 251.274 743.851 251.274L748.914 248.748Z" fill="white"/>
    <path d="M748.914 248.748C748.914 248.748 754.606 243.787 759.04 242.181C765.731 239.757 773.723 242.181 777.267 242.181C778.949 242.181 785.663 242.673 790.431 240.665C796.486 238.114 800.454 230.992 802.582 229.045C802.582 229.045 808.26 220.908 812.708 216.415C817.852 211.22 821.242 208.754 827.391 204.795C847.137 192.081 885.617 189.638 885.617 189.638L915.995 192.67C915.995 192.67 921.908 195.657 925.615 197.722C929.02 199.618 934.222 202.774 934.222 202.774C934.222 202.774 942.164 209.684 946.374 214.899C951.054 220.697 953.168 224.404 956.5 231.066C960.716 239.497 962.558 244.601 964.601 253.8C967.045 264.807 967.419 271.352 966.626 282.598C966.006 291.399 965.777 296.602 962.575 304.827C959.456 312.839 956.561 317.015 950.93 323.52C947.365 327.639 945.112 329.78 940.804 333.119C936.385 336.544 933.907 338.775 928.653 340.697C923.218 342.685 919.714 343.429 913.97 342.718C910.924 342.34 906.375 341.707 906.375 341.707L901.819 339.686C901.819 339.686 905.098 337.303 906.375 335.14C908.207 332.037 907.894 326.046 907.894 326.046C907.894 326.046 908.814 320.323 906.375 316.447C903.506 311.886 899.524 308.872 894.224 307.858C890.923 307.227 888.856 306.964 885.617 307.858C881.385 309.026 874.984 309.879 874.984 309.879L856.757 316.447L846.125 319.983L841.062 321.499L830.429 323.52L824.86 316.447L815.24 311.9L811.189 300.28C811.189 300.28 820.809 304.827 807.139 304.827C793.469 304.827 782.33 304.827 782.33 304.827C782.33 304.827 775.267 305.018 770.685 304.827C768.512 304.736 765.116 304.827 765.116 304.827C765.116 304.827 766.128 297.754 765.116 292.702C764.371 288.985 759.04 285.629 759.04 285.629C759.04 285.629 761.597 281.483 762.584 278.556C763.161 276.844 763.547 273.504 763.547 273.504C763.846 268.758 763.388 268.193 762.584 264.915C761.7 261.312 761.051 259.219 759.04 256.099C757.707 254.032 754.989 251.274 754.989 251.274C750.703 249.242 743.851 251.274 743.851 251.274L748.914 248.748Z" stroke="black"/>
    <path d="M829.417 186.607V168.925L828.404 168.42L837.517 165.893L883.591 144.675L898.781 151.748L906.882 189.638L910.426 196.711L904.856 199.237L893.718 233.592L878.528 241.675L840.049 240.665V238.139V235.613C840.218 234.602 840.454 231.874 840.049 229.045C839.543 225.508 840.555 226.014 840.555 223.488L843.087 215.909L846.631 207.573H849.163L846.631 206.816L843.087 203.784L838.53 200.248L835.492 196.711L831.948 192.164L829.923 188.628L829.417 186.607Z" fill="white"/>
    <path d="M841.568 220.456C842.65 215.255 847.137 207.321 847.137 207.321L845.112 205.805L838.011 199.907C838.011 199.907 832.6 203.642 831.948 204.795C829.535 209.063 829.677 207.638 827.898 212.373C826.118 217.108 824.614 219.763 822.835 224.498C821.055 229.233 819.991 232.099 818.278 237.128C816.039 243.698 815.148 247.514 813.721 254.306C812.04 262.307 811.391 266.875 810.683 275.019C809.64 287.009 809.045 293.914 810.683 305.837C811.147 309.212 812.202 314.426 812.202 314.426C812.202 314.426 819.856 316.216 823.341 319.478C825.621 321.613 826.885 326.551 826.885 326.551L845.112 326.046C845.112 326.046 846.633 323.27 848.15 322.004C850.121 320.358 851.798 320.321 854.226 319.478C861.226 317.049 872.959 316.447 872.959 316.447L877.009 313.921C877.009 313.921 882.723 311.509 885.11 308.363C888.44 303.976 888.267 301.311 890.173 296.743C893.11 289.708 893.503 285.19 897.262 278.556C899.502 274.602 903.844 268.957 903.844 268.957L898.781 259.863C898.781 259.863 896.632 250.537 896.249 244.707C895.688 236.159 896.074 230.926 899.287 222.982C901.077 218.557 901.57 215.751 904.35 211.868C907.442 207.548 909.817 204.831 914.476 202.269C917.545 200.581 923.083 199.743 923.083 199.743L926.121 198.732C926.121 198.732 922.916 195.702 920.552 194.185C918.321 192.754 914.476 191.154 914.476 191.154H908.907L906.882 194.185C906.882 194.185 902.408 195.965 900.806 197.722C897.174 201.705 894.184 205.07 891.692 209.847C889.243 214.543 888.471 217.007 886.629 221.972C884.515 227.672 883.085 237.128 883.085 237.128C883.085 237.128 882.995 239.654 870.934 239.654H840.049V237.128C840.049 237.128 839.828 232.501 840.049 229.55C840.317 225.96 840.835 223.982 841.568 220.456Z" fill="#FEBD2F" stroke="black"/>
    <path d="M830.429 320.994C830.429 320.994 828.919 315.812 828.404 312.405C827.461 306.162 828.404 302.552 828.404 296.238C828.404 292.687 828.404 287.144 828.404 287.144H835.998H854.226H877.009" stroke="black"/>
    <path d="M834.986 286.639H831.948L833.467 282.598L838.53 280.387V279.566V276.03L839.036 271.988L840.049 267.946L842.074 264.41L845.112 262.894L846.631 263.399L848.15 266.431L848.656 269.967L860.808 270.472L862.326 267.946L867.39 262.389H869.921L872.453 264.41L873.972 267.946L874.984 272.493V283.103V286.639H867.39L864.858 288.155L861.314 290.176L858.276 289.67L855.745 286.639H845.112L844.099 287.65L842.581 289.165H840.049L837.517 288.155L834.986 286.639Z" fill="white"/>
    <path d="M839.036 279.566C839.036 279.566 838.234 274.948 839.036 271.483C839.755 268.377 840.126 265.944 842.58 263.905L844.099 262.894C844.099 262.894 845.033 262.796 845.618 262.894C848.588 263.392 848.656 269.967 848.656 269.967H860.808C860.808 269.967 862.917 266.448 864.352 264.915C865.878 263.283 866.243 262.467 868.402 261.884C872.592 260.753 874.478 269.967 874.478 269.967C875.732 273.936 874.984 282.092 874.984 282.092V287.144H872.959H870.934C870.934 287.144 869.419 283.091 867.896 282.092C865.559 280.56 863.559 280.583 860.808 281.082C859.577 281.305 858.724 281.286 857.77 282.092C856.62 283.063 856.421 284.136 856.251 285.629C856.184 286.217 856.251 287.144 856.251 287.144C856.251 287.144 858.109 289.449 859.795 289.67C861.222 289.858 862.062 289.322 863.339 288.66C864.709 287.95 865.43 287.351 866.377 286.134" stroke="black" stroke-linecap="round"/>
    <path d="M831.948 287.144C831.948 287.144 832.696 283.453 833.467 282.597C834.945 280.957 838.53 280.071 838.53 280.071C839.914 280.466 842.074 281.082 842.074 281.082C842.074 281.082 843.434 281.511 844.099 282.092C845.098 282.964 845.72 283.804 845.618 285.124C845.53 286.271 844.935 286.857 844.099 287.65C843.008 288.685 842.061 289.165 840.555 289.165C839.049 289.165 837.011 287.65 837.011 287.65L835.492 286.134" stroke="black" stroke-linecap="round"/>
    <path d="M857.263 214.394C855.744 212.878 856.373 218.851 857.263 221.467C858.257 224.385 862.327 227.529 862.327 227.529C862.327 227.529 867.477 225.434 870.427 223.488C875.325 220.256 881.06 212.878 881.06 212.878L895.743 192.164" stroke="black" stroke-linecap="round"/>
    <path d="M828.91 187.112C828.91 187.112 834.678 197.409 840.049 201.764C844.853 205.658 848.129 207.766 854.226 208.837C857.926 209.486 860.135 209.423 863.845 208.837C869.104 208.006 876.503 203.784 876.503 203.784" stroke="black" stroke-linecap="round"/>
    <path d="M829.923 176.503C829.923 176.503 832.454 174.987 834.986 174.987C835.975 174.987 838.024 175.998 838.024 175.998" stroke="black" stroke-linecap="round"/>
    <path d="M844.099 99.7106C842.921 104.133 842.581 111.331 842.581 111.331C842.581 111.331 840.74 112.277 839.543 112.846C836.26 114.405 833.975 115.403 830.935 117.393C827.662 119.536 827.898 119.414 824.353 121.435C820.809 123.456 818.406 126.598 815.746 129.518C812.413 133.177 810.574 137.084 808.658 141.643C806.431 146.942 806.163 149.059 805.62 154.779C805.341 157.725 805.356 159.409 805.62 162.357C806.151 168.269 806.595 171.928 809.671 177.008C812.057 180.951 813.596 184.644 817.771 186.607C819.984 187.648 821.416 187.856 823.847 188.123C825.813 188.338 828.342 189.002 828.91 187.112C829.081 186.545 828.91 185.597 828.91 185.597V174.482V168.42C828.91 168.42 832.28 169.44 834.48 169.935C838.762 170.899 841.238 171.156 845.618 171.451C849.958 171.743 852.472 172.197 856.757 171.451C860.453 170.807 862.537 170.137 865.871 168.42C868.649 166.988 869.631 165.216 872.453 163.873C873.977 163.147 875.908 163.935 876.503 162.357C876.782 161.618 876.503 160.336 876.503 160.336C876.503 160.336 875.653 156.776 876.503 154.779C877.434 152.592 878.806 151.503 881.06 150.737C882.932 150.101 887.642 150.737 887.642 150.737L891.186 153.263L893.718 158.315C893.718 158.315 895.644 166.717 893.718 169.935C891.944 172.898 886.123 174.482 886.123 174.482H893.718L892.705 183.576L895.237 192.164C895.237 192.164 896.755 190.649 900.806 192.165C904.856 193.68 906.671 194.742 909.919 193.175C910.957 192.674 911.492 192.404 912.451 192.164C913.309 191.95 914.476 191.154 914.476 191.154C917.272 189.293 918.356 186.715 919.539 183.576C920.823 180.171 921.141 177.085 921.565 173.472C922.047 169.356 921.565 163.873 921.565 163.873C921.189 159.282 919.782 156.685 918.527 152.253C917.009 146.893 915.298 144.174 912.957 139.117C910.732 134.311 906.882 126.992 906.882 126.992C906.882 126.992 909.018 124.971 909.919 123.456C910.821 121.94 912.376 118.691 912.957 115.877C913.72 112.186 914.476 106.278 914.476 106.278C914.476 106.278 915.063 102.41 914.476 99.7106C913.876 96.95 911.945 92.6377 911.945 92.6377C911.945 92.6377 909.919 88.0908 906.882 85.0595C904.501 82.6837 902.916 81.1118 900.3 78.9969C898.165 77.2716 896.202 76.6302 893.718 75.4604C890.325 73.8628 888.302 73.0592 884.604 72.4292C880.558 71.7399 878.157 71.9912 874.114 72.4142L873.972 72.4292C870.77 72.764 865.871 73.9448 865.871 73.9448C865.871 73.9448 860.808 75.9656 856.757 78.9969C852.707 82.0282 849.669 87.0803 848.15 89.6064C846.631 92.1324 844.099 99.7106 844.099 99.7106Z" fill="black" stroke="black"/>
    <path d="M866.377 103.247C864.001 104.246 860.808 106.784 860.808 106.784L859.795 107.794L861.82 108.299C861.82 108.299 872.953 109.31 874.478 109.31C876.003 109.31 883.085 110.32 883.085 110.32L891.692 113.351C891.692 113.351 891.916 111.425 891.186 110.32C889.248 107.388 884.604 104.258 884.604 104.258C884.604 104.258 877.086 101.624 872.959 101.731C870.322 101.8 868.808 102.225 866.377 103.247Z" fill="#FEBD2F" stroke="#FEBD2F"/>
    <path d="M847.267 187.429C847.267 187.429 846.881 190.162 847.472 191.741C848.124 193.485 850.551 195.384 850.551 195.384" stroke="black" stroke-linecap="round"/>
    <path d="M849.162 199.743C849.162 199.743 854.011 200.86 856.757 199.743C859.22 198.74 861.82 195.196 861.82 195.196" stroke="black"/>
    <rect width="2.50122" height="5.59655" rx="1.25061" transform="matrix(0.921551 -0.388256 0.389689 0.920947 834.48 181.516)" fill="black"/>
    <rect width="2.5017" height="5.59544" rx="1.25085" transform="matrix(0.969163 -0.246422 0.247426 0.968907 853.045 177.163)" fill="black"/>
    <path d="M881.06 158.147L883.288 160.041L884.705 161.094M884.705 161.094L885.92 159.62L887.136 157.305M884.705 161.094L885.11 164.041L885.92 167.409" stroke="black"/>
    <path d="M865.871 271.483L867.896 266.936L869.921 271.483H865.871Z" fill="black"/>
    <path d="M842.074 271.988L843.593 268.452L845.112 271.988H842.074Z" fill="black"/>
    <path d="M844.099 277.04C844.099 277.04 844.64 276.329 845.112 276.03C846.28 275.288 848.656 276.03 848.656 276.03L849.163 276.535" stroke="black" stroke-linecap="round"/>
    <path d="M855.745 277.04C855.745 277.04 856.599 276.287 857.263 276.03C858.37 275.602 860.301 276.03 860.301 276.03L862.327 277.04" stroke="black" stroke-linecap="round"/>
    <path d="M850.175 280.071C851.559 280.071 852.2 280.575 853.719 280.071" stroke="black" stroke-linecap="round"/>
    <path d="M862.326 138.612C861.13 139.802 860.808 142.654 860.808 142.654C860.808 142.654 859.188 140.776 857.77 140.633C856.526 140.507 855.695 140.848 854.732 141.643C853.843 142.377 853.36 143.028 853.213 144.169C853.053 145.407 853.582 146.131 854.226 147.201C855.163 148.76 856.233 149.253 857.77 150.232L857.796 150.249C859.422 151.284 860.419 151.92 862.326 152.253C863.69 152.491 864.636 152.877 865.871 152.253C867 151.681 867.245 150.81 867.896 149.727C868.764 148.28 869.123 146.84 869.415 145.18C869.688 143.625 869.537 143.019 869.415 141.643C869.309 140.448 869.599 139.595 868.908 138.612C868.147 137.528 867.195 137.174 865.871 137.096C864.367 137.008 863.393 137.551 862.326 138.612Z" fill="#FF0000"/>
    <path d="M715.497 242.181C712.213 243.263 707.903 246.727 707.903 246.727C707.903 246.727 704.928 250.644 703.346 253.8C702.357 255.773 701.641 257.817 700.814 259.863C699.738 262.527 699.656 264.086 699.295 266.936C698.998 269.285 699.118 270.638 699.295 272.998C699.675 278.057 700.318 280.972 702.333 285.629C703.987 289.45 705.192 291.559 707.903 294.723C710.453 297.699 712.277 299.051 715.497 301.29C719.343 303.964 721.634 305.524 726.13 306.848C730.886 308.248 733.874 308.526 738.787 307.858C742.691 307.328 744.841 306.496 748.407 304.827C750.25 303.964 752.964 302.301 752.964 302.301L756.002 300.785L756.508 302.301V307.858V311.395C756.508 311.395 754.341 311.255 752.964 311.395C750.721 311.622 746.017 312.286 743.851 312.91C737.843 314.64 737.578 314.771 732.205 317.962C729.894 319.335 727.142 322.004 727.142 322.004L726.13 325.541C726.13 325.541 726.075 328.313 726.13 330.087C726.252 334.051 726.138 336.355 727.142 340.192C727.95 343.276 728.33 345.172 730.18 347.77C732.131 350.508 733.837 351.664 736.762 353.327C740.349 355.367 743.376 355.919 747.395 356.864C752.267 358.01 754.574 358.811 759.546 359.39C766.823 360.237 768.929 360.245 776.254 360.4C780.999 360.501 785.713 359.901 790.431 359.39C795.058 358.889 800.104 358.035 804.607 356.864C808.603 355.824 809.396 355.398 813.215 353.832C816.077 352.659 816.828 352.166 819.29 350.296C821.07 348.944 823.341 346.254 823.341 346.254C823.341 346.254 825.687 340.664 826.379 336.655C827.12 332.36 827.627 328.707 826.379 324.53C826.074 323.512 825.872 322.509 825.872 322.509L820.809 317.962L815.24 315.436L812.202 313.921L808.658 312.91C808.658 312.91 805.936 312.627 803.089 311.9C797.52 310.478 794.151 311.04 788.406 310.889C784.848 310.796 781.332 310.889 777.773 310.889C772.237 310.889 765.115 311.395 765.115 311.395V309.879C765.115 309.879 765.03 306.798 765.115 304.827C765.262 301.453 765.731 299.054 765.115 295.733C764.601 292.955 764.758 291.953 763.09 289.67C761.773 287.867 759.04 285.629 759.04 285.629L757.521 280.577L748.407 265.42C748.407 265.42 747.898 260.687 746.888 257.842C745.676 254.428 744.615 252.575 742.332 249.759L742.24 249.645C740.27 247.215 739.045 245.704 736.256 244.201C733.387 242.655 730.874 241.144 727.649 240.665C722.759 239.939 720.191 240.633 715.497 242.181Z" fill="white" stroke="black"/>
    <path d="M755.496 301.29C755.496 301.29 751.777 301.993 749.926 302.301C746.175 302.925 743.955 301.855 740.306 300.785C736.57 299.689 734.585 298.653 731.193 296.743C727.61 294.726 725.718 293.342 722.586 290.681C719.818 288.329 718.392 286.848 716.004 284.113C712.652 280.274 710.932 277.929 708.409 273.504C707.098 271.203 705.371 267.441 705.371 267.441C705.371 267.441 703.172 262.607 703.346 259.358C703.49 256.678 704.359 252.285 704.359 252.285C704.359 252.285 702.54 256.924 701.321 259.863C700.219 262.517 699.698 264.091 699.296 266.936C698.742 270.848 699.137 273.145 699.802 277.04C700.317 280.06 701.827 284.618 701.827 284.618" stroke="black" stroke-linecap="round"/>
    <path d="M694.739 265.42C695.538 267.693 698.283 270.472 698.283 270.472L699.295 271.483L699.802 265.925C699.802 265.925 700.308 262.894 700.814 260.873C701.321 258.853 701.827 257.842 701.827 257.842L703.346 254.306L704.359 251.78C704.359 251.78 702.806 251.64 701.827 251.78C699.639 252.091 696.764 254.306 696.764 254.306C696.764 254.306 695.269 256.342 694.739 257.842C693.752 260.633 693.756 262.628 694.739 265.42Z" fill="white" stroke="black"/>
    <path d="M707.396 247.738L704.865 251.274V252.285C704.865 252.285 705.755 252.959 706.384 253.295C707.486 253.884 709.422 254.306 709.422 254.306C709.422 254.306 712.307 254.914 713.978 254.306C715.691 253.682 715.905 252.112 717.523 251.274C718.633 250.7 719.32 250.421 720.56 250.264C722.142 250.064 724.611 250.769 724.611 250.769L729.168 252.285C729.168 252.285 732.647 253.988 734.737 255.316C737.472 257.054 738.869 258.248 741.319 260.368C744.276 262.928 748.407 267.441 748.407 267.441V263.399C748.407 263.399 747.979 259.521 746.888 257.337C746.253 256.063 746.052 255.555 745.369 254.306C744.649 252.986 744.031 252.106 743.344 250.769C742.494 249.113 742.092 248.082 740.813 246.727C739.346 245.175 738.16 244.669 736.256 243.696C734.196 242.644 732.971 242.044 730.687 241.675C728.735 241.36 727.094 240.665 725.117 240.665C723.338 240.665 722.338 240.581 720.56 240.665C718.575 240.758 716.946 241.321 714.991 241.675C713.387 241.966 713.417 242.474 711.953 243.191C709.694 244.297 707.396 247.738 707.396 247.738Z" fill="white" stroke="black"/>
    <path d="M754.483 276.03C752.618 272.24 751.445 271.483 748.914 267.946C748.328 267.128 748.407 265.42 748.407 265.42C748.407 265.42 748.529 263.567 748.407 262.389C748.15 259.907 746.382 256.326 746.382 256.326L743.344 250.264H747.901H751.445L755.496 251.274C755.496 251.274 757.172 252.517 758.027 253.8C759.007 255.27 759.802 256.247 760.559 257.842C761.392 259.598 761.434 260.05 762.078 261.884C762.95 264.368 763.373 266.839 763.597 269.462C763.731 271.035 763.716 271.93 763.597 273.504C763.491 274.895 763.394 275.678 763.09 277.04C762.683 278.867 762.5 279.961 761.571 281.587C760.669 283.167 758.533 285.124 758.533 285.124L758.027 284.618C758.027 284.618 755.944 278.999 754.483 276.03Z" fill="white" stroke="black"/>
    <path d="M726.13 329.582C726.13 329.582 730.77 334.972 733.724 336.655C738.829 339.564 742.197 340.286 747.901 341.707C759.042 344.483 765.783 343.749 777.267 343.728C783.597 343.717 788.19 343.419 794.481 342.718C802.73 341.799 807.019 342.236 814.734 339.181C818.843 337.554 821.602 336.572 824.353 333.119C825.346 331.874 826.379 329.582 826.379 329.582L826.885 327.056" stroke="black" stroke-linecap="round"/>
    <path d="M736.256 331.603L732.205 334.634L731.699 335.14L729.168 333.119L726.636 330.593C726.636 330.593 725.811 330.269 725.623 329.582C725.467 329.011 725.623 327.561 725.623 327.561C725.623 327.561 726.053 325.039 726.636 323.52C727.11 322.284 727.353 321.542 728.155 320.488C729.817 318.306 732.799 316.182 735.243 314.931L740.306 313.415L746.382 312.405L753.977 311.395L756.508 310.384C756.508 310.384 757.521 312.429 757.521 313.415C757.521 316.572 759.497 319.034 757.521 321.499C757.171 321.935 756.508 322.509 756.508 322.509L749.42 325.035C749.42 325.035 747.844 323.005 746.382 322.509C745.072 322.065 744.202 322.274 742.838 322.509C739.864 323.022 737.414 323.77 736.256 326.551C735.497 328.373 736.256 331.603 736.256 331.603Z" fill="white"/>
    <path d="M756.508 300.785V307.353V310.384M756.508 310.384C756.508 310.384 757.521 312.429 757.521 313.415C757.521 316.572 759.497 319.034 757.521 321.499C757.171 321.935 756.508 322.509 756.508 322.509L749.42 325.035C749.42 325.035 747.844 323.005 746.382 322.509C745.072 322.065 744.202 322.274 742.838 322.509C739.864 323.022 737.414 323.77 736.256 326.551C735.497 328.373 736.256 331.603 736.256 331.603L732.205 334.634L731.699 335.14L729.168 333.119L726.636 330.593C726.636 330.593 725.811 330.269 725.623 329.582C725.467 329.011 725.623 327.561 725.623 327.561C725.623 327.561 726.053 325.039 726.636 323.52C727.11 322.284 727.353 321.542 728.155 320.488C729.817 318.306 732.799 316.182 735.243 314.931L740.306 313.415L746.382 312.405L753.977 311.395L756.508 310.384Z" stroke="black" stroke-linecap="round"/>
    <path d="M754.989 331.098L757.521 321.499C757.521 322.711 756.846 325.372 756.002 327.561L754.989 331.098Z" stroke="black" stroke-linecap="round"/>
    <path d="M765.115 304.827V327.056" stroke="black" stroke-linecap="round"/>
    <path d="M769.672 322.004L765.115 323.52V316.447V311.395C765.115 311.395 767.165 311.418 768.153 311.395C771.733 311.309 772.681 311.119 776.254 310.889C781.187 310.573 784.488 310.54 789.418 310.889C794.349 311.239 800.097 310.927 806.126 312.405C808.922 313.09 809.926 313.687 812.708 314.426L812.832 314.459C815.124 315.068 816.595 315.458 818.784 316.447C821.486 317.667 824.86 320.488 824.86 320.488C824.86 320.488 827.126 324.572 826.885 327.056C826.697 328.99 825.872 331.098 825.872 331.098L823.847 333.624L821.822 335.14L811.189 328.067L812.708 327.056V323.52C812.708 323.52 811.083 321.392 809.671 320.488C807.449 319.068 805.725 318.885 803.089 318.973C800.401 319.062 796.507 320.994 796.507 320.994L792.456 320.488H783.343C783.343 320.488 781.892 319.373 780.811 318.973C778.772 318.218 775.748 317.962 775.748 317.962C775.748 317.962 772.923 318.331 771.697 318.973C770.435 319.634 769.672 322.004 769.672 322.004Z" stroke="black" stroke-linecap="round"/>
    <path d="M719.548 333.119L725.624 331.098L726.13 335.14L726.636 338.676L728.661 345.749L732.712 350.801L736.762 353.832L743.344 355.853L748.407 357.369L753.47 358.885L760.559 359.895L767.647 360.4H773.723H780.305L784.862 359.895L792.962 359.39L799.038 358.379L806.126 356.358L811.189 354.843L816.759 352.317L819.29 350.296L821.822 348.275L823.847 345.749L824.86 342.718L825.872 339.686L826.885 335.645V332.613V326.046H845.112L853.213 326.551H862.327C862.327 326.551 859.314 328.817 857.264 330.087C855.159 331.392 853.475 331.4 851.694 333.119C849.469 335.265 848.795 337.171 848.15 340.192C847.614 342.7 847.035 344.448 848.15 346.759C848.999 348.519 851.694 350.296 851.694 350.296L855.745 352.317L854.732 356.358C854.732 356.358 847.079 364.384 841.062 367.978C841.062 367.978 834.394 371.35 829.923 373.03C814.981 378.646 805.371 377.912 789.418 378.588C775.183 379.191 752.964 377.072 752.964 377.072C752.964 377.072 737.3 375.688 727.649 373.03C721.379 371.304 711.953 367.473 711.953 367.473C711.953 367.473 705.552 364.467 702.333 361.411C700.298 359.477 698.555 358.548 697.777 355.853C697.229 353.958 697.46 352.749 697.777 350.801C698.147 348.522 698.594 347.214 699.802 345.244C701.481 342.504 703.294 341.602 705.878 339.686C710.634 336.16 719.548 333.119 719.548 333.119Z" fill="white" stroke="black" stroke-linecap="round"/>
    <path d="M824.353 344.233C824.353 344.233 826.574 340.452 828.91 339.181C831.365 337.846 835.998 338.171 835.998 338.171H848.656" stroke="black" stroke-linecap="round"/>
    <path d="M771.191 326.046C770.338 324.808 769.672 322.509 769.672 322.509V321.499C769.672 321.499 771.086 320.072 772.204 319.478C773.474 318.803 773.976 318.303 775.748 318.468C777.756 318.653 780.811 319.478 780.811 319.478L783.342 320.488C783.342 320.488 783.852 322.741 783.342 324.025C782.978 324.942 781.824 326.046 781.824 326.046C781.824 326.046 780.342 328.452 778.786 329.077C776.942 329.818 775.462 329.53 773.723 328.572C772.499 327.897 771.983 327.195 771.191 326.046Z" fill="#FEBD2F"/>
    <path d="M705.371 353.832L725.623 351.306M732.712 369.494L744.863 361.411M771.191 375.557V365.958M812.708 371.01L801.063 361.411M823.847 353.832L843.593 356.864M769.672 322.509C769.672 322.509 770.338 324.808 771.191 326.046C771.983 327.195 772.499 327.897 773.723 328.572C775.462 329.53 776.942 329.818 778.786 329.077C780.342 328.452 781.824 326.046 781.824 326.046C781.824 326.046 782.978 324.942 783.342 324.025C783.852 322.741 783.342 320.488 783.342 320.488L780.811 319.478C780.811 319.478 777.756 318.653 775.748 318.468C773.976 318.303 773.474 318.803 772.204 319.478C771.086 320.072 769.672 321.499 769.672 321.499V322.509Z" stroke="black" stroke-linecap="round"/>
    <path d="M742.838 337.16C739.552 336.428 736.256 331.603 736.256 331.603C736.256 331.603 735.931 329.409 736.256 328.067C736.567 326.78 736.93 326.056 737.775 325.035C738.963 323.6 739.994 322.863 741.825 322.509C742.796 322.322 744.357 322.509 744.357 322.509L747.395 323.014L749.42 325.035L751.445 328.572C751.445 328.572 752.787 330.399 752.458 331.603C752.163 332.68 751.445 334.129 751.445 334.129C751.445 334.129 748.728 336.493 746.888 337.16C745.402 337.7 744.382 337.504 742.838 337.16Z" fill="#FEBD2F"/>
    <path d="M766.128 339.181L763.09 343.728L783.849 343.223L782.33 340.697C782.33 340.697 779.045 338.353 776.761 337.16C775.035 336.259 774.141 334.937 772.204 335.14C771.145 335.25 769.672 336.15 769.672 336.15L766.128 339.181Z" fill="#FEBD2F"/>
    <path d="M794.481 325.035L796.507 321.499L800.557 319.478H806.633L810.177 320.488L812.202 323.014V325.541L811.696 327.056L811.189 328.572C811.189 328.572 809.274 330.785 807.645 331.603C805.844 332.507 802.582 332.614 802.582 332.614C802.582 332.614 798.473 332.135 796.507 330.593C795.292 329.64 794.204 329.085 793.975 327.561C793.826 326.566 794.481 325.035 794.481 325.035Z" fill="#FEBD2F"/>
    <path d="M742.838 337.16C739.552 336.428 736.256 331.603 736.256 331.603C736.256 331.603 735.931 329.409 736.256 328.067C736.567 326.78 736.93 326.056 737.775 325.035C738.963 323.6 739.994 322.863 741.825 322.509C742.796 322.322 744.357 322.509 744.357 322.509L747.395 323.014L749.42 325.035L751.445 328.572C751.445 328.572 752.787 330.399 752.458 331.603C752.163 332.68 751.445 334.129 751.445 334.129C751.445 334.129 748.728 336.493 746.888 337.16C745.402 337.7 744.382 337.504 742.838 337.16Z" stroke="black" stroke-linecap="round"/>
    <path d="M766.128 339.181L763.09 343.728L783.849 343.223L782.33 340.697C782.33 340.697 779.045 338.353 776.761 337.16C775.035 336.259 774.141 334.937 772.204 335.14C771.145 335.25 769.672 336.15 769.672 336.15L766.128 339.181Z" stroke="black" stroke-linecap="round"/>
    <path d="M794.481 325.035L796.507 321.499L800.557 319.478H806.633L810.177 320.488L812.202 323.014V325.541L811.696 327.056L811.189 328.572C811.189 328.572 809.274 330.785 807.645 331.603C805.844 332.507 802.582 332.614 802.582 332.614C802.582 332.614 798.473 332.135 796.507 330.593C795.292 329.64 794.204 329.085 793.975 327.561C793.826 326.566 794.481 325.035 794.481 325.035Z" stroke="black" stroke-linecap="round"/>
    <path d="M760.059 334.129C760.059 334.968 759.377 335.65 758.533 335.65C757.69 335.65 757.008 334.968 757.008 334.129C757.008 333.29 757.69 332.608 758.533 332.608C759.377 332.608 760.059 333.29 760.059 334.129Z" stroke="black"/>
    <path d="M759.046 294.723C759.046 295.562 758.364 296.243 757.521 296.243C756.677 296.243 755.996 295.562 755.996 294.723C755.996 293.884 756.677 293.202 757.521 293.202C758.364 293.202 759.046 293.884 759.046 294.723Z" stroke="black"/>
    <path d="M762.084 312.91C762.084 313.749 761.402 314.431 760.559 314.431C759.715 314.431 759.033 313.749 759.033 312.91C759.033 312.071 759.715 311.389 760.559 311.389C761.402 311.389 762.084 312.071 762.084 312.91Z" stroke="black"/>
    <path d="M739.806 292.702C739.806 293.541 739.125 294.223 738.281 294.223C737.438 294.223 736.756 293.541 736.756 292.702C736.756 291.863 737.438 291.181 738.281 291.181C739.125 291.181 739.806 291.863 739.806 292.702Z" stroke="black"/>
    <path d="M751.958 287.65C751.958 288.489 751.276 289.17 750.433 289.17C749.589 289.17 748.907 288.489 748.907 287.65C748.907 286.811 749.589 286.129 750.433 286.129C751.276 286.129 751.958 286.811 751.958 287.65Z" stroke="black"/>
    <path d="M788.412 327.056C788.412 327.895 787.73 328.577 786.887 328.577C786.043 328.577 785.361 327.895 785.361 327.056C785.361 326.217 786.043 325.535 786.887 325.535C787.73 325.535 788.412 326.217 788.412 327.056Z" stroke="black"/>
    <path d="M788.412 337.16C788.412 337.999 787.73 338.681 786.887 338.681C786.043 338.681 785.361 337.999 785.361 337.16C785.361 336.322 786.043 335.64 786.887 335.64C787.73 335.64 788.412 336.322 788.412 337.16Z" stroke="black"/>
    <path d="M803.601 337.16C803.601 337.999 802.919 338.681 802.076 338.681C801.233 338.681 800.551 337.999 800.551 337.16C800.551 336.322 801.233 335.64 802.076 335.64C802.919 335.64 803.601 336.322 803.601 337.16Z" stroke="black"/>
    <path d="M770.185 332.108C770.185 332.947 769.503 333.629 768.66 333.629C767.816 333.629 767.134 332.947 767.134 332.108C767.134 331.269 767.816 330.587 768.66 330.587C769.503 330.587 770.185 331.269 770.185 332.108Z" stroke="black"/>
    <path d="M753.983 340.192C753.983 341.031 753.301 341.713 752.458 341.713C751.614 341.713 750.932 341.031 750.932 340.192C750.932 339.353 751.614 338.671 752.458 338.671C753.301 338.671 753.983 339.353 753.983 340.192Z" stroke="black"/>
    <path d="M780.311 333.119C780.311 333.958 779.629 334.64 778.786 334.64C777.942 334.64 777.26 333.958 777.26 333.119C777.26 332.28 777.942 331.598 778.786 331.598C779.629 331.598 780.311 332.28 780.311 333.119Z" stroke="black"/>
    <path d="M792.462 333.119C792.462 333.958 791.78 334.64 790.937 334.64C790.094 334.64 789.412 333.958 789.412 333.119C789.412 332.28 790.094 331.598 790.937 331.598C791.78 331.598 792.462 332.28 792.462 333.119Z" stroke="black"/>
    <path d="M815.752 335.14C815.752 335.979 815.071 336.66 814.227 336.66C813.384 336.66 812.702 335.979 812.702 335.14C812.702 334.301 813.384 333.619 814.227 333.619C815.071 333.619 815.752 334.301 815.752 335.14Z" stroke="black"/>
    <path d="M719.548 288.155L727.649 286.134C727.649 286.134 733.734 284.143 737.775 283.608C742.479 282.986 749.926 283.608 749.926 283.608H757.014" stroke="black" stroke-linecap="round"/>
    <path d="M728.661 278.556C725.98 280.429 725.117 286.134 725.117 286.134L728.661 285.124H732.712L740.306 283.103C740.306 283.103 739.666 279.922 738.281 278.556C735.609 275.921 731.739 276.406 728.661 278.556Z" fill="#FEBD2F" stroke="black" stroke-linecap="round"/>
    <path d="M855.745 351.812C855.745 351.812 860.695 352.096 863.845 351.812C868.908 351.354 871.856 350.836 876.503 348.78C879.665 347.382 881.76 346.703 884.604 344.739C887.956 342.423 890.788 341.481 892.199 337.666C893.157 335.074 892.199 330.593 892.199 330.593C892.199 330.593 890.946 325.346 888.655 323.014C886.61 320.935 884.815 320.478 882.073 319.478C879.414 318.508 879.613 319.072 877.009 317.962C876.196 317.616 872.959 316.952 872.959 316.952H866.883L860.301 317.962L854.226 319.478L850.175 320.488L847.137 323.014L845.618 325.541L862.327 326.551L858.782 329.077L856.757 330.593L853.719 331.603L851.188 333.624L849.669 336.15L848.656 338.676L847.644 342.718V345.749L848.656 347.265L850.175 348.78L853.213 350.801L855.745 351.812Z" fill="white"/>
    <path d="M855.745 351.812L855.559 352.276L855.635 352.306L855.716 352.311L855.745 351.812ZM863.845 351.812L863.89 352.31L863.89 352.31L863.845 351.812ZM876.503 348.78L876.705 349.238L876.705 349.238L876.503 348.78ZM884.604 344.739L884.32 344.327L884.604 344.739ZM892.199 337.666L891.73 337.492L892.199 337.666ZM892.199 330.593L892.688 330.488L892.685 330.477L892.199 330.593ZM888.655 323.014L888.298 323.365L888.655 323.014ZM882.073 319.478L882.244 319.008L882.244 319.008L882.073 319.478ZM877.009 317.962L876.813 318.422L876.813 318.422L877.009 317.962ZM872.959 316.952L873.059 316.462L873.01 316.452H872.959V316.952ZM866.883 316.952V316.452H866.845L866.807 316.458L866.883 316.952ZM860.301 317.962L860.225 317.468L860.203 317.472L860.18 317.477L860.301 317.962ZM850.175 320.488L850.054 320.003L849.943 320.031L849.855 320.104L850.175 320.488ZM847.137 323.014L846.818 322.63L846.752 322.684L846.709 322.757L847.137 323.014ZM845.618 325.541L845.19 325.283L844.765 325.99L845.588 326.04L845.618 325.541ZM862.327 326.551L862.617 326.958L863.768 326.137L862.357 326.052L862.327 326.551ZM858.782 329.077L858.492 328.67L858.483 328.677L858.782 329.077ZM856.757 330.593L856.915 331.067L856.992 331.042L857.057 330.993L856.757 330.593ZM853.719 331.603L853.562 331.129L853.477 331.157L853.407 331.212L853.719 331.603ZM851.188 333.624L850.876 333.233L850.806 333.289L850.759 333.366L851.188 333.624ZM849.669 336.15L849.24 335.892L849.22 335.927L849.205 335.964L849.669 336.15ZM848.656 338.676L848.192 338.49L848.18 338.522L848.171 338.555L848.656 338.676ZM847.644 342.718L847.159 342.596L847.144 342.656V342.718H847.644ZM847.644 345.749H847.144V345.901L847.228 346.027L847.644 345.749ZM848.656 347.265L848.241 347.542L848.268 347.584L848.303 347.619L848.656 347.265ZM850.175 348.78L849.822 349.134L849.857 349.169L849.898 349.197L850.175 348.78ZM853.213 350.801L852.936 351.217L852.979 351.246L853.028 351.266L853.213 350.801ZM855.745 351.812C855.716 352.311 855.716 352.311 855.716 352.311C855.716 352.311 855.716 352.311 855.716 352.311C855.716 352.311 855.717 352.311 855.717 352.311C855.718 352.311 855.719 352.311 855.72 352.311C855.722 352.311 855.726 352.311 855.731 352.312C855.741 352.312 855.755 352.313 855.774 352.314C855.811 352.316 855.867 352.319 855.938 352.323C856.081 352.33 856.288 352.34 856.546 352.351C857.062 352.373 857.783 352.4 858.603 352.418C860.237 352.454 862.286 352.454 863.89 352.31L863.801 351.314C862.254 351.453 860.252 351.454 858.624 351.418C857.813 351.401 857.099 351.374 856.589 351.352C856.334 351.341 856.129 351.331 855.989 351.324C855.919 351.32 855.865 351.317 855.828 351.315C855.81 351.314 855.796 351.314 855.787 351.313C855.782 351.313 855.779 351.313 855.776 351.313C855.775 351.313 855.775 351.312 855.774 351.312C855.774 351.312 855.774 351.312 855.773 351.312C855.773 351.312 855.773 351.312 855.773 351.312C855.773 351.312 855.773 351.312 855.745 351.812ZM863.89 352.31C868.986 351.85 871.991 351.322 876.705 349.238L876.301 348.323C871.72 350.349 868.831 350.859 863.801 351.314L863.89 352.31ZM876.705 349.238C879.83 347.856 881.994 347.15 884.888 345.15L884.32 344.327C881.527 346.257 879.501 346.908 876.301 348.323L876.705 349.238ZM884.888 345.15C885.714 344.579 886.507 344.094 887.271 343.618C888.03 343.144 888.761 342.679 889.434 342.161C890.795 341.115 891.923 339.853 892.668 337.839L891.73 337.492C891.063 339.294 890.069 340.411 888.824 341.368C888.194 341.853 887.501 342.296 886.742 342.769C885.987 343.24 885.17 343.74 884.32 344.327L884.888 345.15ZM892.668 337.839C893.188 336.433 893.177 334.57 893.056 333.116C892.995 332.378 892.903 331.723 892.827 331.253C892.789 331.018 892.754 330.828 892.729 330.697C892.717 330.631 892.706 330.58 892.699 330.544C892.696 330.527 892.693 330.513 892.691 330.504C892.69 330.499 892.689 330.495 892.689 330.493C892.688 330.491 892.688 330.49 892.688 330.49C892.688 330.489 892.688 330.489 892.688 330.489C892.688 330.488 892.688 330.488 892.688 330.488C892.688 330.488 892.688 330.488 892.199 330.593C891.71 330.697 891.71 330.697 891.71 330.697C891.71 330.697 891.71 330.697 891.71 330.697C891.71 330.697 891.71 330.697 891.71 330.697C891.71 330.698 891.71 330.698 891.71 330.699C891.711 330.701 891.711 330.704 891.712 330.708C891.714 330.715 891.716 330.727 891.719 330.743C891.726 330.775 891.735 330.822 891.747 330.884C891.77 331.008 891.803 331.188 891.84 331.414C891.913 331.865 892.001 332.493 892.06 333.199C892.179 334.633 892.168 336.306 891.73 337.492L892.668 337.839ZM892.199 330.593C892.685 330.477 892.685 330.476 892.685 330.476C892.685 330.476 892.685 330.476 892.685 330.476C892.685 330.476 892.685 330.475 892.685 330.475C892.684 330.474 892.684 330.473 892.684 330.472C892.683 330.469 892.682 330.464 892.681 330.459C892.678 330.448 892.674 330.432 892.669 330.412C892.659 330.371 892.644 330.312 892.624 330.236C892.584 330.084 892.525 329.866 892.447 329.597C892.292 329.06 892.06 328.319 891.754 327.503C891.151 325.89 890.236 323.91 889.011 322.664L888.298 323.365C889.365 324.451 890.222 326.259 890.818 327.853C891.112 328.64 891.336 329.356 891.487 329.876C891.562 330.135 891.619 330.345 891.657 330.489C891.676 330.561 891.69 330.617 891.699 330.654C891.704 330.673 891.707 330.687 891.709 330.696C891.71 330.701 891.711 330.704 891.712 330.706C891.712 330.707 891.712 330.708 891.712 330.708C891.712 330.709 891.712 330.709 891.712 330.709C891.712 330.709 891.712 330.709 891.712 330.709C891.712 330.709 891.712 330.709 892.199 330.593ZM889.011 322.664C886.871 320.487 884.952 319.995 882.244 319.008L881.901 319.948C884.678 320.96 886.35 321.383 888.298 323.365L889.011 322.664ZM882.244 319.008C880.878 318.51 880.233 318.403 879.616 318.282C879.041 318.17 878.473 318.043 877.206 317.502L876.813 318.422C878.149 318.992 878.784 319.138 879.424 319.264C880.023 319.381 880.608 319.476 881.901 319.948L882.244 319.008ZM877.206 317.502C876.749 317.308 875.684 317.045 874.791 316.84C874.333 316.734 873.9 316.64 873.582 316.572C873.423 316.538 873.293 316.511 873.202 316.492C873.157 316.482 873.121 316.475 873.097 316.47C873.085 316.467 873.075 316.465 873.069 316.464C873.066 316.463 873.064 316.463 873.062 316.463C873.061 316.462 873.061 316.462 873.06 316.462C873.06 316.462 873.06 316.462 873.06 316.462C873.06 316.462 873.06 316.462 873.06 316.462C873.059 316.462 873.059 316.462 872.959 316.952C872.859 317.442 872.859 317.442 872.859 317.442C872.859 317.442 872.859 317.442 872.859 317.442C872.859 317.442 872.859 317.442 872.859 317.442C872.859 317.442 872.86 317.442 872.861 317.442C872.862 317.442 872.864 317.443 872.867 317.444C872.874 317.445 872.882 317.447 872.894 317.449C872.918 317.454 872.953 317.461 872.997 317.471C873.087 317.489 873.216 317.516 873.373 317.55C873.688 317.617 874.115 317.711 874.567 317.814C875.496 318.028 876.457 318.27 876.813 318.422L877.206 317.502ZM872.959 316.452H866.883V317.452H872.959V316.452ZM866.807 316.458L860.225 317.468L860.377 318.457L866.959 317.446L866.807 316.458ZM860.18 317.477L854.105 318.993L854.347 319.963L860.422 318.447L860.18 317.477ZM854.105 318.993L850.054 320.003L850.296 320.974L854.347 319.963L854.105 318.993ZM849.855 320.104L846.818 322.63L847.457 323.399L850.495 320.873L849.855 320.104ZM846.709 322.757L845.19 325.283L846.047 325.798L847.566 323.272L846.709 322.757ZM845.588 326.04L862.296 327.05L862.357 326.052L845.649 325.041L845.588 326.04ZM862.036 326.144L858.492 328.67L859.073 329.484L862.617 326.958L862.036 326.144ZM858.483 328.677L856.458 330.192L857.057 330.993L859.082 329.477L858.483 328.677ZM856.599 330.118L853.562 331.129L853.877 332.078L856.915 331.067L856.599 330.118ZM853.407 331.212L850.876 333.233L851.5 334.015L854.031 331.994L853.407 331.212ZM850.759 333.366L849.24 335.892L850.097 336.408L851.616 333.882L850.759 333.366ZM849.205 335.964L848.192 338.49L849.12 338.862L850.133 336.336L849.205 335.964ZM848.171 338.555L847.159 342.596L848.129 342.839L849.141 338.798L848.171 338.555ZM847.144 342.718V345.749H848.144V342.718H847.144ZM847.228 346.027L848.241 347.542L849.072 346.987L848.059 345.471L847.228 346.027ZM848.303 347.619L849.822 349.134L850.528 348.426L849.009 346.911L848.303 347.619ZM849.898 349.197L852.936 351.217L853.49 350.385L850.452 348.364L849.898 349.197ZM853.028 351.266L855.559 352.276L855.93 351.347L853.398 350.337L853.028 351.266Z" fill="black"/>
    <path d="M887.642 346.759C886.15 346.556 884.098 345.244 884.098 345.244C884.098 345.244 887.814 343.147 889.667 341.202C890.539 340.286 891.069 339.776 891.692 338.676C892.217 337.751 892.705 336.15 892.705 336.15V332.108C892.705 332.108 892.339 329.262 891.692 327.561C890.778 325.156 890.149 323.626 888.148 322.004C886.776 320.891 885.742 320.633 884.098 319.983C882.002 319.155 880.665 319.186 878.528 318.468C876.51 317.789 873.465 316.447 873.465 316.447C873.465 316.447 875.578 314.838 877.009 313.921C879.094 312.584 879.179 312.498 881.06 310.889C882.444 309.706 883.873 307.883 885.617 307.353C886.563 307.066 888.148 307.353 888.148 307.353C888.148 307.353 890.952 307.047 892.705 307.353C894.803 307.719 895.802 307.546 897.768 308.363C899.158 308.941 902.831 310.889 902.831 310.889C902.831 310.889 904.721 312.164 905.869 313.921C906.792 315.333 907.37 316.865 907.894 318.468C908.341 319.833 908.907 322.004 908.907 322.004C908.907 322.004 909.126 326.016 908.907 328.572C908.702 330.963 908.159 332.601 906.882 334.634C906.139 335.816 905.845 336.679 904.856 337.666C903.67 338.849 902.589 339.106 901.312 340.192C898.679 342.43 897.898 343.857 894.73 345.244C892.44 346.247 890.12 347.097 887.642 346.759Z" fill="white" stroke="black" stroke-linecap="round"/>
    <path d="M697.776 350.296L696.258 371.515V387.682" stroke="black" stroke-linecap="round"/>
    <path d="M837.017 331.603C837.017 332.163 836.562 332.619 835.999 332.619C835.435 332.619 834.98 332.163 834.98 331.603C834.98 331.043 835.435 330.587 835.999 330.587C836.562 330.587 837.017 331.043 837.017 331.603Z" stroke="black"/>
    <path d="M847.144 331.603C847.144 332.163 846.688 332.619 846.125 332.619C845.561 332.619 845.106 332.163 845.106 331.603C845.106 331.043 845.561 330.587 846.125 330.587C846.688 330.587 847.144 331.043 847.144 331.603Z" stroke="black"/>
    <path d="M1105 173L1118 155M1129.5 164L1139 155M1148 145.5L1155.5 138M1144.5 176L1155.5 165M1118 190.5L1132.5 176M1096.5 221L1108.5 209M1096.5 197L1112.5 181M1082 243.5L1096.5 229M1105 246.5L1118 233.5M1118 223.5L1129.5 212M1144.5 194.5L1158 181M1132.5 223.5L1148 212M1129.5 252L1142 239.5L1144.5 237M1102.5 270C1107.67 265.667 1118 256.5 1118 254.5" stroke="white" stroke-opacity="0.8" stroke-width="2" stroke-linecap="round" stroke-linejoin="round"/>
    <g opacity="0.9">
        <path d="M1177 402V314C1177 314 1166.07 315.791 1161.5 320.5C1156.72 325.419 1159.49 331.428 1155.5 337C1151.2 342.999 1147.13 345.26 1140.5 348.5C1128.52 354.35 1106.5 351.5 1106.5 351.5L1110.5 377C1110.5 377 1137.06 378.247 1146 390C1150.56 396.004 1152.3 400.49 1153 408C1153.92 417.908 1146 432.5 1146 432.5C1150.5 431.833 1177 434.033 1177 411V402Z" fill="#383333"/>
        <path d="M784 3C784 3 786.824 10.6834 790 15.5C794.794 22.7703 802.302 31.4343 809 37C816.509 43.2398 830 50 830 50L849.5 54.5C849.5 54.5 860.479 57.2961 866.5 54.5C872.016 51.9387 873.388 48.7354 877 43C879.765 38.6099 879.537 35.3026 881.5 30.5C883.285 26.1321 884.205 23.623 886.5 19.5C890.698 11.9584 902.5 3 902.5 3" stroke="white" stroke-width="3" stroke-linecap="square"/>
        <path d="M0 408V384.556C0 384.556 12.5158 388.862 16.9092 384.556C23.5068 378.09 22.1205 362.212 30.7956 365.424C38.0901 368.125 31.3958 378.391 36.1138 384.556C43.0829 393.663 53.9717 400.063 63.8867 394.269C70.8307 390.211 67.4333 381.468 73.3413 376.02C87.1939 363.247 112.175 367.886 120.91 384.556C130.11 402.113 105 432 105 432H46.5H21.5C21.5 432 11.3531 430.415 7 425.5C2.64691 420.585 0 414 0 414V408Z" fill="#383333"/>
        <path d="M554 368.406C533.176 366.283 521.061 372.756 502 381.406C473.724 394.238 441 432.406 441 432.406H616L621 422.406C621 422.406 587.432 371.814 554 368.406Z" fill="white"/>
        <path d="M487 416L514 400M548 391L576 407M514 424L542 416M576 424L599 416" stroke="black" stroke-width="2" stroke-linecap="round" stroke-linejoin="round"/>
    </g>
    <circle cx="1094" cy="364" r="35" fill="#FA6C54"/>
    <path d="M1078 364L1102.75 349.278L1102.75 378.722L1078 364Z" fill="white"/>
</svg>
