<svg width="34" height="17" viewBox="0 0 34 17" fill="none" xmlns="http://www.w3.org/2000/svg">
    <path d="M8.49992 8.49999C10.4559 8.49999 12.0416 6.91433 12.0416 4.95832C12.0416 3.00231 10.4559 1.41666 8.49992 1.41666C6.54391 1.41666 4.95825 3.00231 4.95825 4.95832C4.95825 6.91433 6.54391 8.49999 8.49992 8.49999Z" fill="#292D32"/>
    <path d="M8.50003 10.2708C4.95128 10.2708 2.06128 12.6508 2.06128 15.5833C2.06128 15.7816 2.21711 15.9375 2.41545 15.9375H14.5846C14.7829 15.9375 14.9388 15.7816 14.9388 15.5833C14.9388 12.6508 12.0488 10.2708 8.50003 10.2708Z" fill="#292D32"/>
    <path d="M25.4999 8.49999C27.4559 8.49999 29.0416 6.91433 29.0416 4.95832C29.0416 3.00231 27.4559 1.41666 25.4999 1.41666C23.5439 1.41666 21.9583 3.00231 21.9583 4.95832C21.9583 6.91433 23.5439 8.49999 25.4999 8.49999Z" fill="#292D32"/>
    <path d="M25.5 10.2708C21.9513 10.2708 19.0613 12.6508 19.0613 15.5833C19.0613 15.7816 19.2171 15.9375 19.4154 15.9375H31.5846C31.7829 15.9375 31.9388 15.7816 31.9388 15.5833C31.9388 12.6508 29.0488 10.2708 25.5 10.2708Z" fill="#292D32"/>
</svg>
