<svg width="38" height="38" viewBox="0 0 38 38" fill="none" xmlns="http://www.w3.org/2000/svg">
    <path d="M38 19C38 29.4934 29.4934 38 19 38C8.50659 38 0 29.4934 0 19C0 8.50659 8.50659 0 19 0C29.4934 0 38 8.50659 38 19Z" fill="white"/>
    <path fill-rule="evenodd" clip-rule="evenodd" d="M8 13.0273C8 12.475 8.44772 12.0273 9 12.0273H11.0805C11.4346 12.0273 11.7622 12.2145 11.942 12.5195L17.2048 21.4475L22.3698 12.5262C22.5486 12.2174 22.8784 12.0273 23.2352 12.0273H25.3157C25.868 12.0273 26.3157 12.475 26.3157 13.0273C26.3157 13.5796 25.868 14.0273 25.3157 14.0273H23.8117L18.078 23.931C17.8999 24.2386 17.572 24.4285 17.2165 24.4299C16.8611 24.4313 16.5316 24.2439 16.3511 23.9377L10.5092 14.0273H9C8.44772 14.0273 8 13.5796 8 13.0273Z" fill="#383333"/>
    <path fill-rule="evenodd" clip-rule="evenodd" d="M16.5129 10.7581C18.5089 7.21019 23.0026 5.95218 26.5504 7.94752C30.0986 9.94302 31.3559 14.4374 29.3606 17.9846C27.3651 21.5327 22.8714 22.7905 19.3231 20.7953C18.8417 20.5246 18.6709 19.9149 18.9415 19.4335C19.2122 18.9521 19.8219 18.7813 20.3033 19.052C22.8893 20.5061 26.1636 19.5892 27.6174 17.0042L27.6174 17.0041C29.0714 14.4193 28.155 11.1445 25.5701 9.69074C22.9848 8.23678 19.7104 9.15347 18.256 11.7387C17.9852 12.2201 17.3755 12.3908 16.8941 12.12C16.4128 11.8492 16.2421 11.2394 16.5129 10.7581Z" fill="#383333"/>
    <path fill-rule="evenodd" clip-rule="evenodd" d="M13.4751 30C13.4751 29.4477 13.9228 29 14.4751 29H19.9502C20.5025 29 20.9502 29.4477 20.9502 30C20.9502 30.5523 20.5025 31 19.9502 31H14.4751C13.9228 31 13.4751 30.5523 13.4751 30Z" fill="#383333"/>
    <path fill-rule="evenodd" clip-rule="evenodd" d="M17.2126 22.4299C17.7649 22.4299 18.2126 22.8776 18.2126 23.4299V30C18.2126 30.5523 17.7649 31 17.2126 31C16.6604 31 16.2126 30.5523 16.2126 30V23.4299C16.2126 22.8776 16.6604 22.4299 17.2126 22.4299Z" fill="#383333"/>
    <path fill-rule="evenodd" clip-rule="evenodd" d="M12.9917 15.3774L12.9903 15.3788L12.9888 15.3803L12.9869 15.3822C12.9861 15.3829 12.9862 15.3828 12.9869 15.3822C12.9869 15.3822 12.9869 15.3822 12.9869 15.3822M21.6935 13.7751L21.6949 13.7744L21.6964 13.7737L21.6976 13.7731L21.6988 13.7725C21.6992 13.7723 21.6988 13.7725 21.6988 13.7725M21.6976 13.7731L21.6988 13.7725L21.6976 13.7731Z" fill="#383333"/>
</svg>
