<svg width="38" height="38" viewBox="0 0 38 38" fill="none" xmlns="http://www.w3.org/2000/svg">
    <path d="M38 19C38 29.4934 29.4934 38 19 38C8.50659 38 0 29.4934 0 19C0 8.50659 8.50659 0 19 0C29.4934 0 38 8.50659 38 19Z" fill="white"/>
    <path fill-rule="evenodd" clip-rule="evenodd" d="M18.5 29.75C12.2866 29.75 7.25 24.7134 7.25 18.5C7.25 12.2866 12.2866 7.25 18.5 7.25C24.7134 7.25 29.75 12.2866 29.75 18.5C29.75 24.7134 24.7134 29.75 18.5 29.75ZM18.5 27.5C20.8869 27.5 23.1761 26.5518 24.864 24.864C26.5518 23.1761 27.5 20.8869 27.5 18.5C27.5 16.1131 26.5518 13.8239 24.864 12.136C23.1761 10.4482 20.8869 9.5 18.5 9.5C16.1131 9.5 13.8239 10.4482 12.136 12.136C10.4482 13.8239 9.5 16.1131 9.5 18.5C9.5 20.8869 10.4482 23.1761 12.136 24.864C13.8239 26.5518 16.1131 27.5 18.5 27.5ZM12.875 21.875H15.125V24.125L12.875 21.875ZM24.125 21.875L21.875 24.125V21.875H24.125ZM15.125 12.875V15.125H12.875L15.125 12.875ZM21.875 12.875L24.125 15.125H21.875V12.875ZM19.0625 15.125C19.5101 15.125 19.9393 14.9472 20.2557 14.6307C20.5722 14.3143 20.75 13.8851 20.75 13.4375C20.75 12.9899 20.5722 12.5607 20.2557 12.2443C19.9393 11.9278 19.5101 11.75 19.0625 11.75C18.6149 11.75 18.1857 11.9278 17.8693 12.2443C17.5528 12.5607 17.375 12.9899 17.375 13.4375C17.375 13.8851 17.5528 14.3143 17.8693 14.6307C18.1857 14.9472 18.6149 15.125 19.0625 15.125ZM13.4375 19.625C13.8851 19.625 14.3143 19.4472 14.6307 19.1307C14.9472 18.8143 15.125 18.3851 15.125 17.9375C15.125 17.4899 14.9472 17.0607 14.6307 16.7443C14.3143 16.4278 13.8851 16.25 13.4375 16.25C12.9899 16.25 12.5607 16.4278 12.2443 16.7443C11.9278 17.0607 11.75 17.4899 11.75 17.9375C11.75 18.3851 11.9278 18.8143 12.2443 19.1307C12.5607 19.4472 12.9899 19.625 13.4375 19.625ZM23.5625 20.75C23.7841 20.75 24.0035 20.7064 24.2083 20.6215C24.413 20.5367 24.599 20.4124 24.7557 20.2557C24.9124 20.099 25.0367 19.913 25.1215 19.7083C25.2064 19.5035 25.25 19.2841 25.25 19.0625C25.25 18.8409 25.2064 18.6215 25.1215 18.4167C25.0367 18.212 24.9124 18.026 24.7557 17.8693C24.599 17.7126 24.413 17.5883 24.2083 17.5035C24.0035 17.4186 23.7841 17.375 23.5625 17.375C23.1149 17.375 22.6857 17.5528 22.3693 17.8693C22.0528 18.1857 21.875 18.6149 21.875 19.0625C21.875 19.5101 22.0528 19.9393 22.3693 20.2557C22.6857 20.5722 23.1149 20.75 23.5625 20.75ZM18.5 19.625C18.7984 19.625 19.0845 19.5065 19.2955 19.2955C19.5065 19.0845 19.625 18.7984 19.625 18.5C19.625 18.2016 19.5065 17.9155 19.2955 17.7045C19.0845 17.4935 18.7984 17.375 18.5 17.375C18.2016 17.375 17.9155 17.4935 17.7045 17.7045C17.4935 17.9155 17.375 18.2016 17.375 18.5C17.375 18.7984 17.4935 19.0845 17.7045 19.2955C17.9155 19.5065 18.2016 19.625 18.5 19.625ZM17.9375 25.25C18.3851 25.25 18.8143 25.0722 19.1307 24.7557C19.4472 24.4393 19.625 24.0101 19.625 23.5625C19.625 23.1149 19.4472 22.6857 19.1307 22.3693C18.8143 22.0528 18.3851 21.875 17.9375 21.875C17.4899 21.875 17.0607 22.0528 16.7443 22.3693C16.4278 22.6857 16.25 23.1149 16.25 23.5625C16.25 24.0101 16.4278 24.4393 16.7443 24.7557C17.0607 25.0722 17.4899 25.25 17.9375 25.25Z" fill="black"/>
</svg>
