<svg width="38" height="38" viewBox="0 0 38 38" fill="none" xmlns="http://www.w3.org/2000/svg">
    <path d="M38 19C38 29.4934 29.4934 38 19 38C8.50659 38 0 29.4934 0 19C0 8.50659 8.50659 0 19 0C29.4934 0 38 8.50659 38 19Z" fill="white"/>
    <path d="M7.75 16.1875V14.7813C7.74995 14.1661 7.88443 13.5584 8.14401 13.0007C8.40359 12.443 8.78199 11.9488 9.2527 11.5528C9.7234 11.1567 10.275 10.8684 10.8689 10.7081C11.4628 10.5477 12.0845 10.5191 12.6906 10.6244C13.0851 9.25582 13.9139 8.05262 15.052 7.19625C16.19 6.33988 17.5757 5.87677 19 5.87677C20.4243 5.87677 21.81 6.33988 22.948 7.19625C24.0861 8.05262 24.9149 9.25582 25.3094 10.6244C25.9154 10.5191 26.5372 10.5477 27.1311 10.7081C27.725 10.8684 28.2766 11.1567 28.7473 11.5528C29.218 11.9488 29.5964 12.443 29.856 13.0007C30.1156 13.5584 30.25 14.1661 30.25 14.7813V16.1875C30.2504 19.0092 29.1905 21.728 27.2803 23.8048C25.3702 25.8817 22.7494 27.1649 19.9375 27.4V30.25H18.0625V27.4C15.2506 27.1649 12.6298 25.8817 10.7197 23.8048C8.80954 21.728 7.74959 19.0092 7.75 16.1875ZM16.1612 15.2481H21.8387C21.7554 14.5052 21.8712 13.7534 22.1744 13.0701C22.4775 12.3867 22.9571 11.7962 23.5637 11.3594C23.3209 10.3314 22.7381 9.41559 21.9098 8.76017C21.0815 8.10476 20.0562 7.74817 19 7.74817C17.9438 7.74817 16.9185 8.10476 16.0902 8.76017C15.2619 9.41559 14.6791 10.3314 14.4362 11.3594C15.0432 11.7964 15.523 12.3871 15.8261 13.0709C16.1293 13.7546 16.2449 14.5068 16.1612 15.25V15.2481ZM14.0256 15.2481C14.0952 14.9395 14.0944 14.6191 14.0233 14.3108C13.9522 14.0025 13.8127 13.7142 13.6151 13.4671C13.4175 13.22 13.1668 13.0205 12.8817 12.8835C12.5965 12.7464 12.2842 12.6752 11.9678 12.6752C11.6514 12.6752 11.3391 12.7464 11.0539 12.8835C10.7688 13.0205 10.5181 13.22 10.3205 13.4671C10.1229 13.7142 9.98339 14.0025 9.91233 14.3108C9.84127 14.6191 9.84047 14.9395 9.91 15.2481H14.0256ZM23.9744 15.2481H28.0881C28.1576 14.9395 28.1569 14.6191 28.0858 14.3108C28.0147 14.0025 27.8752 13.7142 27.6776 13.4671C27.48 13.22 27.2293 13.0205 26.9442 12.8835C26.659 12.7464 26.3467 12.6752 26.0303 12.6752C25.7139 12.6752 25.4016 12.7464 25.1164 12.8835C24.8313 13.0205 24.5806 13.22 24.383 13.4671C24.1854 13.7142 24.0459 14.0025 23.9748 14.3108C23.9038 14.6191 23.903 14.9395 23.9725 15.2481H23.9744ZM19 25.5625C21.3244 25.5625 23.5659 24.699 25.2896 23.1395C27.0133 21.5801 28.0961 19.4359 28.3281 17.1231H9.67188C9.90385 19.4359 10.9867 21.5801 12.7104 23.1395C14.4341 24.699 16.6756 25.5625 19 25.5625ZM15.25 30.2519H22.75C22.9986 30.2519 23.2371 30.3507 23.4129 30.5265C23.5887 30.7023 23.6875 30.9407 23.6875 31.1894C23.6875 31.438 23.5887 31.6765 23.4129 31.8523C23.2371 32.0281 22.9986 32.1269 22.75 32.1269H15.25C15.0014 32.1269 14.7629 32.0281 14.5871 31.8523C14.4113 31.6765 14.3125 31.438 14.3125 31.1894C14.3125 30.9407 14.4113 30.7023 14.5871 30.5265C14.7629 30.3507 15.0014 30.2519 15.25 30.2519Z" fill="#383333"/>
</svg>
