<svg width="118" height="17" viewBox="0 0 118 17" fill="none" xmlns="http://www.w3.org/2000/svg">
    <path d="M4.14 16V8.7H9.46V16H13.06V1.4H9.46V8.54H4.14V1.4H0.54V16H4.14ZM21.9338 16.2C25.9338 16.2 28.0738 13.64 28.0738 10.4C28.0738 7.12 25.8538 4.58 21.9338 4.58C18.0138 4.58 15.7938 7.18 15.7938 10.4C15.7938 13.7 17.9738 16.2 21.9338 16.2ZM21.9338 13.2C20.1738 13.2 19.3538 12.14 19.3538 10.38C19.3538 8.62 20.1938 7.54 21.9338 7.54C23.6338 7.54 24.5138 8.6 24.5138 10.38C24.5138 12.08 23.7538 13.2 21.9338 13.2ZM34.3295 10.42C34.3295 8.66 34.9295 7.52 36.4695 7.52C38.0695 7.52 38.5295 8.52 38.5295 10.12V16H42.0895V10.44C42.0895 8.68 42.8495 7.52 44.2095 7.52C45.8295 7.52 46.2495 8.52 46.2495 10.12V16H49.8095V8.92C49.8095 6.28 48.5895 4.58 46.0895 4.58C44.7895 4.58 43.8295 5.04 43.2095 5.98C42.5895 6.92 42.2295 8.12 42.0895 9.62V9.22C42.0895 6.24 40.9095 4.58 38.3295 4.58C37.0095 4.58 36.0295 5.1 35.3895 6.12C34.7495 7.14 34.3895 8.5 34.2895 10.18L34.3095 9.8V4.8H30.7895V16H34.3295V10.42ZM61.0481 11.34C60.7881 12.48 60.0881 13.2 58.6481 13.2C56.9881 13.2 56.0681 12.22 56.0681 10.46H64.6081V10.02C64.6081 6.9 62.6281 4.58 58.6681 4.58C54.8081 4.58 52.5281 7.2 52.5281 10.44C52.5281 13.8 54.4681 16.2 58.7281 16.2C61.8481 16.2 63.9481 14.66 64.6481 12.26L61.0481 11.34ZM58.6881 7.54C60.3681 7.54 61.1081 8.56 61.1081 10V10.3H56.0681C56.1281 8.62 57.0081 7.54 58.6881 7.54ZM79.1867 9.08C78.7067 6.48 76.8667 4.58 73.2067 4.58C69.3667 4.58 67.0867 7.18 67.0867 10.4C67.0867 13.7 69.1467 16.2 73.2267 16.2C76.8067 16.2 78.7267 14.32 79.2067 11.64L75.6667 10.82C75.5267 12.26 74.7867 13.2 73.2667 13.2C71.5867 13.2 70.6267 12.2 70.6267 10.42C70.6267 8.66 71.5467 7.54 73.2267 7.54C74.7467 7.54 75.5467 8.4 75.6467 9.92L79.1867 9.08ZM85.2709 16V10.42C85.2709 8.66 85.9709 7.52 87.5109 7.52C89.1109 7.52 89.6909 8.52 89.6909 10.12V16H93.1509V8.92C93.1509 6.28 91.8309 4.58 89.3509 4.58C88.0509 4.58 87.0709 5.08 86.4109 6.08C85.7509 7.06 85.3709 8.38 85.2709 10V0.48H81.7309V16H85.2709ZM104.372 11.34C104.112 12.48 103.412 13.2 101.972 13.2C100.312 13.2 99.3923 12.22 99.3923 10.46H107.932V10.02C107.932 6.9 105.952 4.58 101.992 4.58C98.1323 4.58 95.8523 7.2 95.8523 10.44C95.8523 13.8 97.7923 16.2 102.052 16.2C105.172 16.2 107.272 14.66 107.972 12.26L104.372 11.34ZM102.012 7.54C103.692 7.54 104.432 8.56 104.432 10V10.3H99.3923C99.4523 8.62 100.332 7.54 102.012 7.54ZM115.359 16V7.96H117.659V4.8H115.359V4.26C115.359 3.6 115.619 3.32 116.279 3.32H117.659V0.48H116.119C114.539 0.48 113.439 0.74 112.819 1.28C112.219 1.8 111.919 2.82 111.919 4.34V4.8H110.079V7.96H111.919V16H115.359Z" fill="black"/>
</svg>
