<svg width="38" height="38" viewBox="0 0 38 38" fill="none" xmlns="http://www.w3.org/2000/svg">
    <path d="M38 19C38 29.4934 29.4934 38 19 38C8.50659 38 0 29.4934 0 19C0 8.50659 8.50659 0 19 0C29.4934 0 38 8.50659 38 19Z" fill="white"/>
    <path d="M15.2038 18.7812L9.45381 13.0312L8.4375 14.0476L13.1712 18.7812H8.4375V19.5C8.4375 22.1687 9.49765 24.7282 11.3847 26.6153C13.2718 28.5023 15.8313 29.5625 18.5 29.5625C21.1687 29.5625 23.7282 28.5023 25.6153 26.6153C27.5023 24.7282 28.5625 22.1687 28.5625 19.5V18.7812H15.2038ZM18.5 28.125C16.3377 28.1223 14.255 27.3087 12.6635 25.8448C11.072 24.3809 10.0875 22.3733 9.90447 20.2188H27.0962C26.9132 22.3735 25.9286 24.3811 24.337 25.845C22.7453 27.3089 20.6625 28.1225 18.5 28.125Z" fill="#383333"/>
    <path d="M22.8125 13.75C22.429 13.7506 22.048 13.8124 21.6841 13.9333C21.1495 13.21 20.4532 12.6217 19.6507 12.2155C18.8483 11.8092 17.9619 11.5963 17.0625 11.5938C15.7851 11.59 14.5433 12.0152 13.5363 12.8013L10.1726 9.4375L9.15625 10.4538L13.5047 14.8023L14.0128 14.2941C14.4124 13.8924 14.8877 13.5739 15.4112 13.3571C15.9346 13.1404 16.4959 13.0296 17.0625 13.0313C17.7101 13.033 18.3491 13.1802 18.9322 13.4618C19.5154 13.7434 20.0279 14.1524 20.432 14.6585C20.2786 14.7925 20.1368 14.9392 20.0079 15.0969C19.8062 15.35 19.5499 15.5542 19.2582 15.6943C18.9664 15.8345 18.6468 15.9069 18.3232 15.9063H15.625V17.3438H18.3232C18.8622 17.3449 19.3945 17.2243 19.8804 16.9909C20.3662 16.7576 20.7931 16.4175 21.1292 15.9961C21.4084 15.6473 21.789 15.3939 22.2185 15.2708C22.648 15.1477 23.1051 15.1611 23.5266 15.3091C23.9482 15.457 24.3133 15.7323 24.5717 16.0968C24.83 16.4613 24.9688 16.897 24.9688 17.3438H26.4062C26.4051 16.391 26.0261 15.4776 25.3524 14.8038C24.6787 14.1301 23.7653 13.7511 22.8125 13.75Z" fill="#383333"/>
</svg>
