<svg width="127" height="29" viewBox="0 0 127 29" fill="none" xmlns="http://www.w3.org/2000/svg">
    <path d="M7.94007 12.34C12.4401 12.34 13.3101 13.12 14.3601 17.98L15.2001 22H19.1901L18.2901 17.92C17.9001 16.06 17.3901 14.74 16.8201 13.99C16.2501 13.21 15.3801 12.73 14.2701 12.52C13.5801 12.37 12.4101 12.25 10.1601 12.25C13.2801 12.16 18.5901 10.3 18.5901 5.98001C18.5901 2.35001 15.9801 0.100006 10.3701 0.100006H0.320068V21.97H3.98007V12.34H7.94007ZM9.65007 3.43001C13.3701 3.43001 15.1101 5.08001 15.1101 7.60001C15.1101 10.15 13.3401 12.13 9.74007 12.13H3.98007V3.43001H9.65007Z" fill="black"/>
    <path d="M34.5569 15.4C33.9569 17.68 32.4569 19 29.6069 19C26.1269 19 24.3869 16.78 24.3869 13.63H38.2169V13C38.2169 8.41001 35.3369 4.87001 29.6669 4.87001C24.0569 4.87001 20.8169 8.92001 20.8169 13.66C20.8169 18.64 23.6369 22.3 29.7269 22.3C34.2869 22.3 37.1969 19.84 38.1569 16.36L34.5569 15.4ZM29.6969 8.20001C33.0869 8.20001 34.6769 10.3 34.6769 13.18V13.39H24.3869C24.5069 10.42 26.3369 8.20001 29.6969 8.20001Z" fill="black"/>
    <path d="M58.4976 11.86C57.7776 7.84001 54.9276 4.87001 49.9176 4.87001C44.3976 4.87001 41.0376 8.89001 41.0376 13.6C41.0376 18.4 44.1876 22.3 49.8576 22.3C55.1376 22.3 57.8976 19.21 58.5276 15.19L54.9576 14.47C54.6276 17.08 53.0076 19 49.8576 19C46.4976 19 44.6076 16.72 44.6076 13.6C44.6076 12.07 45.0576 10.78 45.9876 9.76001C46.9176 8.71001 48.2376 8.20001 49.9176 8.20001C53.0376 8.20001 54.5976 9.97001 54.9276 12.61L58.4976 11.86Z" fill="black"/>
    <path d="M60.8167 3.04001V3.28001H65.9767V3.04001H60.8167ZM61.5667 5.20001V22H65.2267V5.20001H61.5667Z" fill="black"/>
    <path d="M72.8484 28.48V18.25L72.6684 14.86C72.9684 17.11 73.6284 18.88 74.6484 20.2C75.6984 21.52 77.2883 22.18 79.4483 22.18C83.3783 22.18 87.0684 19.12 87.0684 13.48C87.0684 7.66001 83.3484 4.99001 79.6583 4.99001C75.9083 4.99001 73.2983 7.42 72.6684 12.19L72.8484 9.25001V5.20001H69.2184V28.48H72.8484ZM78.2184 19C74.6184 19 72.6684 16.72 72.6684 13.6C72.6684 12.07 73.1484 10.78 74.1084 9.76001C75.0684 8.71001 76.4184 8.20001 78.1883 8.20001C81.3983 8.20001 83.5284 10.24 83.5284 13.57C83.5284 16.78 81.5784 19 78.2184 19Z" fill="black"/>
    <path d="M103.809 15.4C103.209 17.68 101.709 19 98.8588 19C95.3788 19 93.6388 16.78 93.6388 13.63H107.469V13C107.469 8.41001 104.589 4.87001 98.9188 4.87001C93.3088 4.87001 90.0688 8.92001 90.0688 13.66C90.0688 18.64 92.8888 22.3 98.9788 22.3C103.539 22.3 106.449 19.84 107.409 16.36L103.809 15.4ZM98.9488 8.20001C102.339 8.20001 103.929 10.3 103.929 13.18V13.39H93.6388C93.7588 10.42 95.5888 8.20001 98.9488 8.20001Z" fill="black"/>
    <path d="M118.636 19.06C115.426 19.06 113.566 17.71 112.096 16L109.246 19.12C111.526 21.07 114.226 22.36 118.216 22.36C123.586 22.36 125.806 20.11 125.806 17.47C125.806 16.09 125.236 15.1 124.066 14.53C122.896 13.93 120.856 13.57 117.946 13.42C114.706 13.27 113.566 12.25 113.566 10.78C113.566 9.25001 114.616 7.96001 117.346 7.96001C120.136 7.96001 121.936 9.13001 123.496 10.84L126.046 7.96001C123.856 5.92001 121.036 4.75 117.196 4.75C114.946 4.75 113.206 5.23001 111.976 6.19001C110.776 7.15001 110.176 8.32001 110.176 9.73001C110.176 12.13 111.646 13.36 117.886 13.6C121.036 13.75 122.416 14.5 122.416 16.18C122.416 17.89 121.156 19.06 118.636 19.06Z" fill="black"/>
</svg>
