<svg width="38" height="38" viewBox="0 0 38 38" fill="none" xmlns="http://www.w3.org/2000/svg">
    <path d="M38 19C38 29.4934 29.4934 38 19 38C8.50659 38 0 29.4934 0 19C0 8.50659 8.50659 0 19 0C29.4934 0 38 8.50659 38 19Z" fill="white"/>
    <g clip-path="url(#clip0_0_1)">
        <path d="M22.2986 13.6986C22.0167 12.8597 21.5865 12.5594 21.0891 12.5594C20.4826 12.5594 19.7754 13.0045 19.1104 13.4656C18.7147 13.7408 17.1826 15.4327 16.347 15.4327C16.2513 15.4353 16.1572 15.4075 16.0782 15.3532C15.2625 14.7759 16.2846 12.26 16.2846 11.0535C16.2846 9.88562 16.0724 9.43951 15.7474 9.43951C14.8489 9.43951 13.0887 12.8607 12.598 13.8478C12.4594 14.1263 12.2662 14.2363 12.0419 14.2363C11.2577 14.2363 10.0913 12.8873 9.55562 12.6805C9.4757 12.648 9.39047 12.6306 9.30423 12.6291C8.4091 12.6291 8.42848 14.8558 8.44204 15.4467C8.93126 15.313 9.38996 15.2307 9.79103 15.2307C10.8019 15.2307 11.4447 15.7543 11.2771 17.2912C11.2393 17.6366 11.0209 18.7371 11.3783 18.9798C11.4357 19.0171 11.5032 19.0359 11.5716 19.0335C11.9838 19.0335 12.6367 18.5254 12.8794 18.3704C13.2059 18.1612 13.5483 18.0081 13.838 18.0081C14.1867 18.0081 14.4589 18.2295 14.5369 18.8422C14.5834 19.205 14.4057 20.5855 14.7612 20.8059C14.8134 20.8373 14.8732 20.8535 14.9341 20.8528C15.5904 20.8528 16.7108 19.2127 17.2179 19.0248C17.4561 18.9366 17.708 18.8918 17.9619 18.8926C18.6367 18.8926 19.2785 19.1905 19.9348 19.4423C20.0452 19.485 20.1353 19.5034 20.2085 19.5034C20.6052 19.5034 20.4899 18.9526 20.1504 18.6005C19.6558 18.0851 18.8711 18.3113 18.3209 17.9422C17.6219 17.4734 18.595 16.5312 18.9728 16.2518C19.4238 15.9175 20.4235 15.3804 21.2213 15.3804C21.5909 15.3804 21.9169 15.4957 22.1242 15.7989C22.516 16.3719 21.8641 17.0955 22.0288 17.7388C22.098 18.0057 22.2656 18.0977 22.4642 18.0977C22.8871 18.0977 23.4475 17.6802 23.4862 17.6405C23.744 17.3727 24.0213 17.1245 24.316 16.8979C22.8435 16.5719 22.7185 14.9512 22.2986 13.6986Z" fill="#383333"/>
        <path d="M10.2248 12.4915C10.2248 12.4915 11.4982 13.6148 12.0422 13.6148C12.1463 13.6148 12.2243 13.5736 12.2607 13.4738C13.0434 11.3305 14.6985 8.88099 15.7792 8.88099C16.2505 8.88099 16.6123 9.34745 16.744 10.5099C16.9145 12.0149 15.8736 14.2958 16.374 14.8156C16.3849 14.8266 16.398 14.8352 16.4124 14.8409C16.4268 14.8465 16.4423 14.8491 16.4578 14.8485C17.0201 14.8485 19.242 12.0033 21.1436 12.0033C21.29 12.0029 21.4358 12.021 21.5776 12.057C23.2908 12.4964 22.5483 15.4176 23.9389 16.2522C24.1692 16.3925 24.4332 16.4676 24.7028 16.4697C25.2153 16.4697 25.6832 16.1776 25.7951 15.5736C26.0775 14.0488 21.2347 11.0931 23.8547 11.0931C24.2305 11.0931 24.76 11.1537 25.4797 11.2883C25.9084 8.35109 25.7587 7.53685 25.3751 7.53685C24.9377 7.53685 24.1957 8.59424 23.6556 8.77637C23.64 8.78161 23.6236 8.78438 23.6071 8.7846C23.2986 8.7846 23.3092 7.67345 22.7813 7.67345C22.4403 7.67345 21.875 8.13699 20.8549 9.66084C20.3289 10.447 19.9351 10.7579 19.6241 10.7579C18.4413 10.7579 18.4747 6.2334 17.0555 6.2334C16.7687 6.2334 16.4229 6.41795 15.9957 6.86115C15.3398 7.54218 14.7276 7.7834 14.1546 7.7834C12.7591 7.7834 11.6029 6.35013 10.655 6.35013C10.281 6.35013 9.93856 6.57343 9.62759 7.1973C8.98386 8.49107 11.1635 8.42423 10.2248 12.4915ZM11.8925 13.0737C11.6377 12.9594 11.1853 12.6533 10.761 12.3046C10.8395 11.9204 10.8879 11.5756 10.916 11.2578C11.0357 11.0573 11.1829 10.8597 11.3626 10.6766C12.0945 9.93015 13.0323 9.69426 13.4919 10.1254C12.8366 11.0287 12.2597 12.1345 11.8925 13.0737ZM22.651 11.1488C22.4117 11.7151 22.8772 12.3128 23.5897 13.0941C23.54 13.1484 23.4822 13.1946 23.4182 13.2312C23.3504 13.2688 23.2767 13.2948 23.2003 13.3082C22.9736 12.5429 22.5933 11.8081 21.6958 11.578C21.5639 11.5458 21.4293 11.5259 21.2938 11.5184C21.0506 10.7279 21.1635 9.98537 21.6241 9.72865C22.1317 9.44432 22.8719 9.85023 23.3771 10.6378C23.0956 10.6916 22.7895 10.8214 22.651 11.1488Z" fill="#383333"/>
        <path d="M26.2533 15.5843C26.1473 16.2774 27.1548 16.4014 26.6733 17.5368C26.4263 18.1176 24.3342 19.4564 24.4883 19.7494C24.7164 20.1781 24.9906 20.3447 25.2681 20.3447C25.8174 20.3447 26.3768 19.6927 26.6021 19.128C26.8971 18.3893 26.9731 16.4503 27.6919 16.0909C27.8135 16.0294 27.9336 16.0023 28.0523 16.0023C28.7619 16.0023 29.425 16.9618 30.0644 17.0917C30.2204 16.3971 30.109 15.6763 30.2678 14.9778C27.5689 14.9439 31.7675 11.2554 29.3683 9.75047C29.239 9.66958 29.1305 9.63325 29.0356 9.63373C28.2804 9.63373 28.4563 11.9461 26.5483 11.9461C26.3962 11.9461 26.2301 11.9311 26.0494 11.8992C25.3514 11.7761 24.8695 11.719 24.5541 11.719C22.7164 11.7199 26.5512 13.6531 26.2533 15.5843Z" fill="#383333"/>
        <path d="M31.0342 13.9607C31.103 13.5446 31.1066 13.1204 31.0448 12.7032C30.8714 11.5412 29.9632 10.5957 29.0206 10.5952C28.6985 10.5952 27.9274 10.7294 27.5627 11.874C27.3174 11.7715 27.0698 11.6746 26.8201 11.5834C27.0357 10.1326 26.9548 9.13823 26.5677 8.63012C26.4744 8.50299 26.3523 8.3997 26.2115 8.32866C26.0707 8.25762 25.9151 8.22084 25.7574 8.2213C25.2507 8.2213 24.6816 8.56037 23.9744 9.28548L23.9487 9.2167C23.7986 8.81079 23.5477 8.1317 22.8744 8.1317C22.4142 8.1317 21.8049 8.41554 20.5242 10.2823C20.1528 10.255 19.7809 10.2351 19.4087 10.2227L19.3399 9.9728C18.9403 8.50563 18.4869 6.84326 17.2096 6.84277H17.2091C16.6884 6.84277 16.1406 7.14938 15.5337 7.77955C15.0818 8.2494 14.6347 8.47754 14.1663 8.47754C13.5952 8.47754 13.0106 8.1501 12.4448 7.8338C11.8728 7.51412 11.2818 7.18329 10.6706 7.18329C9.94594 7.18329 9.35694 7.62746 8.86966 8.54148C8.31311 9.58579 8.62262 10.2755 8.92197 10.943C9.05275 11.2341 9.18983 11.5427 9.28719 11.9214C6.04333 13.3145 3.96875 15.424 3.96875 17.7892C3.96875 24.3442 10.4749 32.0312 18.5 32.0312C26.5256 32.0312 33.0312 24.3442 33.0312 17.7892C33.0312 16.3913 32.296 15.0854 31.0342 13.9607ZM18.5 31.0436C12.3915 31.0436 7.25523 26.2502 5.54684 21.2306C7.94886 23.6956 12.8454 25.3846 18.5 25.3846C24.1546 25.3846 29.0502 23.6956 31.4522 21.2311C29.7438 26.2497 24.608 31.0436 18.5 31.0436ZM23.8935 22.5738C23.7768 22.941 23.414 23.499 22.964 23.8918C22.2694 24.4978 21.4227 24.6281 21.0192 24.2047C20.6802 23.8472 20.7359 23.1832 21.1253 22.5617C21.9226 21.2888 23.0657 21.0098 23.5617 21.2616C23.552 21.2965 23.5385 21.3299 23.5317 21.3672C23.4629 21.7543 23.5874 22.1602 23.8935 22.5738ZM31.3374 16.3506C30.8632 16.3506 30.635 17.6642 30.6011 18.4901C30.5711 19.2181 30.3609 19.4607 30.0601 19.4607C29.6271 19.4607 29.0061 18.9589 28.4641 18.6751C28.2907 18.584 28.1575 18.5438 28.0528 18.5438C27.7424 18.5438 27.6857 18.9066 27.5791 19.4201C27.3994 20.2866 27.1853 21.1856 26.7155 21.933C26.3706 22.4818 25.8373 22.8635 25.303 22.8635C24.9519 22.8635 24.6002 22.6988 24.3009 22.3089C23.1238 20.7792 25.7094 20.4663 26.2248 19.4176C26.5232 18.8112 26.4278 18.6 26.1546 18.6C25.6169 18.6 24.391 19.4205 24.1381 19.6526C23.6915 20.0609 23.1786 20.6625 22.5508 20.6625C22.4447 20.6625 22.3348 20.645 22.2215 20.6068C21.5554 20.382 21.462 19.5441 21.6029 18.9216C21.7201 18.4014 21.9899 17.934 21.2944 17.9074C21.2698 17.9064 21.2453 17.9059 21.2207 17.9059C20.7727 17.9059 20.315 18.0531 19.9086 18.2372C19.4155 18.461 18.7335 18.8611 18.5547 19.4486C18.499 19.6293 19.695 19.8177 19.881 19.8894C20.8129 20.2537 21.2687 22.0076 20.2936 22.0076C20.1677 22.0076 20.018 21.978 19.8422 21.9141C19.2309 21.686 18.6163 21.3634 17.9764 21.3634C17.7662 21.3634 17.5535 21.3982 17.338 21.483C16.8914 21.6584 16.6473 22.1587 16.2956 22.4721C15.7754 22.939 15.3152 23.1899 14.9539 23.1899C14.456 23.1899 14.146 22.7133 14.1261 21.6666C14.1087 20.816 13.9454 20.5404 13.6814 20.5404C13.2106 20.5404 12.4201 21.4196 11.571 21.4845C11.5463 21.4859 11.5226 21.4869 11.4998 21.4869C10.3669 21.4869 10.8076 19.3329 10.8958 18.6688C10.9922 17.9446 10.5553 17.6874 9.88248 17.6874C9.12637 17.6874 8.0748 18.012 7.14867 18.3641C7.19323 18.4038 7.23973 18.4387 7.28236 18.4823C8.13002 19.328 8.40853 20.4435 7.90623 20.972C7.40297 21.4995 6.30877 21.2413 5.46208 20.3946C4.61539 19.5479 4.33591 18.4324 4.83917 17.9044C5.26881 17.4506 5.93677 17.6032 6.50494 17.9059C7.24748 17.6564 8.00069 17.439 7.98325 17.0883C7.85102 14.4358 8.60325 13.9408 9.18402 13.9413C9.40539 13.9468 9.62193 14.0072 9.81419 14.1171C10.3383 10.7415 8.3722 10.5124 9.29591 8.77882C9.7333 7.95877 10.1901 7.6788 10.6715 7.6788C11.7066 7.6788 12.8551 8.97257 14.1673 8.97257C14.7093 8.97257 15.2794 8.75121 15.8805 8.12685C16.4196 7.56691 16.8536 7.3378 17.2106 7.3378C18.8076 7.33829 18.8502 11.9248 19.7633 11.9248C19.9386 11.9248 20.1464 11.7558 20.4026 11.3528C21.7419 9.24963 22.4544 8.62624 22.8749 8.62624C23.4881 8.62624 23.4799 9.95246 23.8853 9.95246C23.9686 9.95246 24.0703 9.89579 24.1982 9.75968C24.871 9.04329 25.3888 8.71537 25.7579 8.71537C26.6283 8.71537 26.6714 10.5371 25.9623 13.3751C25.9623 13.3751 26.1207 13.4153 26.3527 13.4153C26.8472 13.4153 27.6741 13.2336 27.9976 12.0982C28.2015 11.3833 28.5982 11.0898 29.0216 11.0898C29.69 11.0898 30.4239 11.8212 30.5667 12.7778C30.8269 14.525 29.6745 15.7625 29.7646 16.2895C29.7801 16.383 29.8261 16.4198 29.8949 16.4198C30.1531 16.4198 30.7329 15.8943 31.2391 15.8943C31.6164 15.8943 31.9535 16.1873 32.0833 17.2113C31.7869 16.5908 31.5399 16.3506 31.3374 16.3506Z" fill="#383333"/>
    </g>
    <defs>
        <clipPath id="clip0_0_1">
            <rect width="31" height="31" fill="white" transform="translate(3)"/>
        </clipPath>
    </defs>
</svg>
